<svg class="header-logo-svg" width="124" height="100%" viewBox="0 0 124 48" preserveAspectRatio="XMidYMid slice" xmlns="http://www.w3.org/2000/svg" data-v-e131759e=""><defs data-v-e131759e=""><linearGradient id="header-logo-gradient" gradientTransform="rotate(90)" data-v-e131759e=""><stop offset="0%" style="stop-color:#626361;stop-opacity:1;" data-v-e131759e=""></stop><stop offset="100%" style="stop-color:#191B18;stop-opacity:1;" data-v-e131759e=""></stop></linearGradient><clipPath id="header-logo-clip" data-v-e131759e=""><path d="M101.58 20.5804L107.606 1.03205H124V46.9675H113.567V33.4837C113.567 24.9245 113.697 17.5267 113.956 11.2901C113.136 14.4299 112.099 17.9138 110.846 21.7417L102.876 46.9675H93.9337L85.9635 21.7417C85.0131 18.688 83.998 15.2256 82.918 11.3546C83.134 18.5804 83.242 25.9568 83.242 33.4837V46.9675H72.8095V1.03205H89.2034L95.2945 20.774C96.1152 23.5697 97.1736 27.3761 98.4695 32.1933C99.5063 28.1073 100.543 24.2363 101.58 20.5804Z" fill="black" data-v-e131759e=""></path><path d="M54.8291 46.9675H45.0835L61.5413 1.03205H71.2869L54.8291 46.9675Z" fill="black" data-v-e131759e=""></path><path fill-rule="evenodd" clip-rule="evenodd" d="M40.758 41.4194C36.3949 45.8065 30.6927 48 23.6513 48C16.6099 48 10.9077 45.8065 6.54461 41.4194C2.18154 36.9892 0 31.1828 0 24C0 16.8172 2.18154 11.0108 6.54461 6.58064C10.9077 2.19355 16.6099 0 23.6513 0C30.6927 0 36.3949 2.19355 40.758 6.58064C42.7928 8.64675 44.3532 11.0122 45.439 13.6771C46.3518 15.9171 46.9292 18.3688 47.1714 21.0319C47.2589 21.9937 47.3026 22.983 47.3026 24C47.3026 31.1828 45.1211 36.9892 40.758 41.4194ZM23.6513 38.5161C19.9362 38.5161 16.9771 37.2258 14.774 34.6452C12.5276 32.1075 11.4045 28.5591 11.4045 24C11.4045 19.4409 12.5276 15.8925 14.774 13.3548C16.9771 10.7742 19.9362 9.48387 23.6513 9.48387C27.3232 9.48387 30.3039 10.7742 32.5934 13.3548C34.8398 15.8925 35.9629 19.4409 35.9629 24C35.9629 28.5591 34.8398 32.1075 32.5934 34.6452C30.3039 37.2258 27.3232 38.5161 23.6513 38.5161Z" fill="black" data-v-e131759e=""></path></clipPath></defs><rect x="0" y="0" width="124" height="48" fill="url(#header-logo-gradient)" clip-path="url(#header-logo-clip)" data-v-e131759e=""></rect></svg>